<svg width="208" height="211" viewBox="0 0 208 211" fill="none" xmlns="http://www.w3.org/2000/svg">
<path d="M27.4668 161.162C27.466 161.162 27.4653 161.161 27.466 161.16L139.427 48.5861C143.322 44.6702 149.654 44.6529 153.569 48.5474L159.875 54.8182C163.791 58.7127 163.808 65.0443 159.914 68.9603L48.1179 181.371C47.7303 181.761 47.1614 181.91 46.6328 181.759V181.759L45.321 181.327L44.0308 180.761L42.2899 179.805L40.6284 178.871L38.8596 177.904L37.936 177.241L36.9927 176.483L36.1534 175.678L35.327 174.831L34.5197 173.998L33.6734 173.147L32.8779 172.305L31.8334 170.959L30.7097 169.215L30.6029 169.074C30.1779 168.514 29.813 167.911 29.5144 167.275L29.4683 167.176L29.0711 166.108L28.6739 165.188L28.3999 164.41L27.9991 163.37L27.5831 161.86L27.468 161.163C27.4679 161.162 27.4673 161.162 27.4668 161.162V161.162Z" fill="url(#paint0_linear_431_16)"/>
<path d="M69.333 189.782L168.251 90.32L188.737 110.694L110.009 189.855L95.9407 189.83L82.999 189.807L69.333 189.782Z" fill="url(#paint1_linear_431_16)"/>
<path d="M21.23 96.3768L97.4822 19.702L117.968 40.076L21.1013 137.476L21.1756 112.115L21.2196 97.1292L21.225 96.3809L21.23 96.3768Z" fill="url(#paint2_linear_431_16)"/>
<circle cx="143.093" cy="65.2171" r="64.4368" fill="url(#paint3_linear_431_16)"/>
<path d="M168.455 58.2137L180.584 51.2109V65.2165L168.455 58.2137Z" fill="white"/>
<path d="M168.455 72.2235L180.584 65.2207V79.2262L168.455 72.2235Z" fill="white"/>
<path d="M180.568 65.2238L168.439 72.2266V58.221L180.568 65.2238Z" fill="white"/>
<path d="M180.582 65.2145L180.576 51.2089L192.708 58.2071L180.582 65.2145Z" fill="white"/>
<path d="M180.582 65.2182L180.576 79.2237L192.708 72.2255L180.582 65.2182Z" fill="white"/>
<path d="M180.568 65.2274L192.698 58.2246V72.2301L180.568 65.2274Z" fill="white"/>
<defs>
<linearGradient id="paint0_linear_431_16" x1="102.627" y1="107.007" x2="-63.3731" y2="272.007" gradientUnits="userSpaceOnUse">
<stop stop-color="#FF64FF"/>
<stop offset="1" stop-color="#FF64FF" stop-opacity="0"/>
</linearGradient>
<linearGradient id="paint1_linear_431_16" x1="136.126" y1="134.007" x2="69.126" y2="270.507" gradientUnits="userSpaceOnUse">
<stop stop-color="#FF64FF"/>
<stop offset="1" stop-color="#FF64FF" stop-opacity="0"/>
</linearGradient>
<linearGradient id="paint2_linear_431_16" x1="66.627" y1="73.5068" x2="-44.873" y2="137.007" gradientUnits="userSpaceOnUse">
<stop stop-color="#FF64FF"/>
<stop offset="1" stop-color="#FF64FF" stop-opacity="0.12"/>
</linearGradient>
<linearGradient id="paint3_linear_431_16" x1="98.9568" y1="110.897" x2="207.529" y2="0.78027" gradientUnits="userSpaceOnUse">
<stop stop-color="#00B9FF" stop-opacity="0.97"/>
<stop offset="0.432836" stop-color="#00ADEF"/>
<stop offset="0.947917" stop-color="#00AAEA"/>
</linearGradient>
</defs>
</svg>
